# File created by Blade
# Date/Time:  Thu Sep 25 15:31:15 2014
# Frame Rate: 120.000 fps
#------------------------------------------------------
:FULLY-SPECIFIED
:DEGREES
1474
root -11.509383 32.536520 -16.495132 369.986928 43.856555 -3.231651
Spine -0.523055 5.616779 -0.698802
Head -1.640425 -31.487380 19.586216
LeftShoulder -4.227424 25.842490 17.010891
LeftArm 43.003721 42.206043 -45.581048
LeftForeArm -7.872359 -0.000000 79.885145
LeftHand -18.782430 0.000000 -20.031440
LeftHandThumb1 -26.253704 0.000000 33.147579
RightShoulder -15.817532 4.314349 -20.957508
RightArm -17.900382 -49.563252 88.952658
RightForeArm 4.740072 -0.000000 87.937187
RightHand -1.105486 -0.000000 22.539822
RightHandThumb1 -24.326973 -0.000000 -32.862282
LeftUpLeg -10.266900 29.314483 -4.735907
LeftLeg 14.696515 -0.000000 -0.000000
LeftFoot -36.573533 24.417966 -40.124363
LeftToeBase 1.933967 -0.000000 -0.000000
RightUpLeg -35.538342 -0.142380 10.046806
RightLeg 16.321057 -0.000000 -0.000000
RightFoot -6.395388 -17.666745 -4.478955
RightToeBase -7.091673 -0.000000 0.000000
1475
root -11.380471 32.521725 -16.459445 370.085863 43.919783 -3.081075
Spine -0.471230 5.255353 -0.330763
Head -1.477184 -31.563192 19.413083
LeftShoulder -4.209160 25.777885 16.965056
LeftArm 42.958232 42.187717 -45.603297
LeftForeArm -7.928583 -0.000000 79.832436
LeftHand -18.662206 -0.000000 -20.362470
LeftHandThumb1 -26.253704 0.000000 33.147579
RightShoulder -15.912136 4.170069 -20.938941
RightArm -18.088997 -49.136667 89.117534
RightForeArm 4.523319 -0.000000 87.973894
RightHand -0.806065 0.000000 22.378613
RightHandThumb1 -24.326973 -0.000000 -32.862282
LeftUpLeg -9.833026 29.158163 -4.827398
LeftLeg 14.319666 -0.000000 -0.000000
LeftFoot -36.659806 24.436001 -40.229818
LeftToeBase 1.957920 -0.000000 -0.000000
RightUpLeg -35.685440 -0.661481 9.973580
RightLeg 16.048040 -0.000000 -0.000000
RightFoot -6.380004 -17.856499 -4.539738
RightToeBase -6.977377 -0.000000 0.000000
1476
root -11.251633 32.505965 -16.421347 370.136676 44.043652 -2.921622
Spine -0.346209 4.799740 0.057834
Head -1.327841 -31.581874 19.254597
LeftShoulder -4.253788 25.771544 16.901566
LeftArm 42.959721 42.102361 -45.633145
LeftForeArm -7.949471 0.000000 79.751511
LeftHand -18.532261 0.000000 -20.683056
LeftHandThumb1 -26.253704 0.000000 33.147579
RightShoulder -15.894817 4.146480 -20.957194
RightArm -18.401052 -48.598520 89.398542
RightForeArm 4.333709 0.000000 88.091513
RightHand -1.175295 -0.000000 22.432530
RightHandThumb1 -24.326973 -0.000000 -32.862282
LeftUpLeg -9.346115 28.945591 -4.877737
LeftLeg 13.986285 -0.000000 -0.000000
LeftFoot -36.782536 24.449552 -40.327545
LeftToeBase 2.162753 -0.000000 -0.000000
RightUpLeg -35.782841 -1.223406 9.873404
RightLeg 15.832306 -0.000000 -0.000000
RightFoot -6.301234 -18.252590 -4.706419
RightToeBase -6.651307 -0.000000 0.000000
1477
root -11.117349 32.490987 -16.375143 370.214137 44.232651 -2.833608
Spine -0.340506 4.438080 0.524685
Head -1.261083 -31.740712 19.149523
LeftShoulder -4.314759 25.838472 16.816853
LeftArm 43.153067 42.045783 -45.507872
LeftForeArm -8.053923 0.000000 79.620637
LeftHand -18.319909 -0.000000 -20.855510
LeftHandThumb1 -26.253704 0.000000 33.147579
RightShoulder -16.088675 3.925750 -20.889704
RightArm -18.431586 -48.211079 89.363559
RightForeArm 4.064665 -0.000000 88.175221
RightHand -1.027605 -0.000000 22.402318
RightHandThumb1 -24.326973 -0.000000 -32.862282
LeftUpLeg -8.917784 28.701304 -4.896279
LeftLeg 13.616460 -0.000000 -0.000000
LeftFoot -36.713978 24.430422 -40.303851
LeftToeBase 1.883731 -0.000000 -0.000000
RightUpLeg -35.934677 -1.868110 9.853344
RightLeg 15.677507 -0.000000 -0.000000
RightFoot -6.288079 -18.506357 -4.788533
RightToeBase -6.698585 -0.000000 0.000000
1478
root -10.984008 32.472721 -16.325247 370.278519 44.417653 -2.714178
Spine -0.298515 4.065256 0.971635
Head -1.181641 -31.905920 19.017808
LeftShoulder -4.362865 25.796013 16.737276
LeftArm 43.138756 42.014877 -45.507274
LeftForeArm -8.126364 -0.000000 79.519035
LeftHand -18.082873 -0.000000 -21.301808
LeftHandThumb1 -26.253704 0.000000 33.147579
RightShoulder -16.149088 3.873290 -20.875279
RightArm -18.740855 -47.725122 89.580454
RightForeArm 3.722612 -0.000000 88.312341
RightHand -1.162962 -0.000000 22.260819
RightHandThumb1 -24.326973 -0.000000 -32.862282
LeftUpLeg -8.464353 28.435979 -4.902698
LeftLeg 13.323976 -0.000000 -0.000000
LeftFoot -36.854471 24.364486 -40.461636
LeftToeBase 2.142342 -0.000000 -0.000000
RightUpLeg -36.072885 -2.480446 9.790258
RightLeg 15.628611 -0.000000 -0.000000
RightFoot -6.188947 -18.761987 -4.929302
RightToeBase -6.390537 -0.000000 0.000000
1479
root -10.850352 32.454040 -16.269973 370.328495 44.670021 -2.628298
Spine -0.281651 3.692572 1.457531
Head -1.126089 -32.088409 18.917413
LeftShoulder -4.393161 25.882245 16.694042
LeftArm 43.281238 41.911844 -45.454297
LeftForeArm -8.382186 -0.000000 79.390936
LeftHand -17.980522 -0.000000 -21.487774
LeftHandThumb1 -26.253704 0.000000 33.147579
RightShoulder -16.239129 3.739357 -20.849158
RightArm -18.899622 -47.229945 89.683605
RightForeArm 3.462333 -0.000000 88.374551
RightHand -1.075989 -0.000000 22.078405
RightHandThumb1 -24.326973 -0.000000 -32.862282
LeftUpLeg -8.036498 28.156346 -4.874939
LeftLeg 13.047052 -0.000000 -0.000000
LeftFoot -36.782309 24.343346 -40.369622
LeftToeBase 1.933764 -0.000000 -0.000000
RightUpLeg -36.210717 -3.135495 9.750267
RightLeg 15.622573 -0.000000 -0.000000
RightFoot -6.076636 -19.067315 -5.104237
RightToeBase -6.188109 -0.000000 0.000000
1480
root -10.717120 32.434315 -16.208994 370.400134 44.935398 -2.568225
Spine -0.318871 3.356418 1.976630
Head -1.100921 -32.330417 18.840246
LeftShoulder -4.433476 25.745053 16.625416
LeftArm 43.196435 41.973309 -45.507071
LeftForeArm -8.476732 -0.000000 79.249814
LeftHand -17.675552 0.000000 -21.908174
LeftHandThumb1 -26.253704 0.000000 33.147579
RightShoulder -16.369673 3.578031 -20.814622
RightArm -19.014715 -46.787236 89.728480
RightForeArm 3.302369 -0.000000 88.451472
RightHand -1.024426 -0.000000 21.830645
RightHandThumb1 -24.326973 -0.000000 -32.862282
LeftUpLeg -7.664393 27.875202 -4.832194
LeftLeg 12.831876 -0.000000 -0.000000
LeftFoot -36.781534 24.228926 -40.394213
LeftToeBase 1.806116 -0.000000 -0.000000
RightUpLeg -36.358103 -3.757839 9.714452
RightLeg 15.629218 -0.000000 -0.000000
RightFoot -5.908648 -19.356111 -5.310779
RightToeBase -6.194280 -0.000000 0.000000
1481
root -10.578780 32.412970 -16.142561 370.437073 45.290126 -2.493496
Spine -0.321645 2.968289 2.512435
Head -1.085697 -32.627168 18.728843
LeftShoulder -4.490137 25.783218 16.541334
LeftArm 43.338697 41.924509 -45.429200
LeftForeArm -8.708529 0.000000 79.047412
LeftHand -17.521502 0.000000 -23.114518
LeftHandThumb1 -26.253704 0.000000 33.147579
RightShoulder -16.475474 3.550672 -20.806008
RightArm -19.296762 -46.265654 89.885990
RightForeArm 3.183958 -0.000000 88.524855
RightHand -1.041356 -0.000000 21.762396
RightHandThumb1 -24.326973 -0.000000 -32.862282
LeftUpLeg -7.227872 27.470671 -4.738617
LeftLeg 12.658940 -0.000000 -0.000000
LeftFoot -36.911352 23.990857 -40.599422
LeftToeBase 1.960917 -0.000000 -0.000000
RightUpLeg -36.456949 -4.519120 9.705702
RightLeg 15.707442 -0.000000 -0.000000
RightFoot -5.780609 -19.607014 -5.571226
RightToeBase -6.087966 -0.000000 0.000000
